<mxfile host="Electron" modified="2024-05-08T23:57:35.405Z" agent="Mozilla/5.0 (Windows NT 10.0; Win64; x64) AppleWebKit/537.36 (KHTML, like Gecko) draw.io/24.2.5 Chrome/120.0.6099.109 Electron/28.1.0 Safari/537.36" etag="gey5t66ecED5i4efkFvj" version="24.2.5" type="device">
  <diagram name="Page-1" id="ItWA3qDcDvKpw3eaSshK">
    <mxGraphModel dx="500" dy="614" grid="1" gridSize="10" guides="1" tooltips="1" connect="1" arrows="1" fold="1" page="1" pageScale="1" pageWidth="850" pageHeight="1100" math="0" shadow="0">
      <root>
        <mxCell id="0" />
        <mxCell id="1" parent="0" />
        <mxCell id="kLwrZnIwr0KPvRrvXAmP-2" value="Patient" style="rounded=1;whiteSpace=wrap;html=1;" parent="1" vertex="1">
          <mxGeometry x="20" y="320" width="70" height="30" as="geometry" />
        </mxCell>
        <mxCell id="kLwrZnIwr0KPvRrvXAmP-8" value="" style="edgeStyle=orthogonalEdgeStyle;rounded=0;orthogonalLoop=1;jettySize=auto;html=1;" parent="1" source="kLwrZnIwr0KPvRrvXAmP-14" edge="1">
          <mxGeometry relative="1" as="geometry">
            <mxPoint x="320" y="80" as="sourcePoint" />
            <mxPoint x="440" y="79" as="targetPoint" />
            <Array as="points">
              <mxPoint x="300" y="80" />
            </Array>
          </mxGeometry>
        </mxCell>
        <mxCell id="kLwrZnIwr0KPvRrvXAmP-3" value="Receptionist" style="rounded=1;whiteSpace=wrap;html=1;" parent="1" vertex="1">
          <mxGeometry x="200" y="110" width="70" height="30" as="geometry" />
        </mxCell>
        <mxCell id="kLwrZnIwr0KPvRrvXAmP-7" value="Doctor" style="rounded=1;whiteSpace=wrap;html=1;" parent="1" vertex="1">
          <mxGeometry x="440" y="110" width="70" height="30" as="geometry" />
        </mxCell>
        <mxCell id="kLwrZnIwr0KPvRrvXAmP-12" value="" style="endArrow=classic;html=1;rounded=0;entryX=1.002;entryY=1.047;entryDx=0;entryDy=0;exitX=-0.009;exitY=1.047;exitDx=0;exitDy=0;exitPerimeter=0;entryPerimeter=0;" parent="1" source="kLwrZnIwr0KPvRrvXAmP-13" target="kLwrZnIwr0KPvRrvXAmP-13" edge="1">
          <mxGeometry width="50" height="50" relative="1" as="geometry">
            <mxPoint x="10" y="290" as="sourcePoint" />
            <mxPoint x="190" y="110" as="targetPoint" />
          </mxGeometry>
        </mxCell>
        <mxCell id="kLwrZnIwr0KPvRrvXAmP-13" value="1.[Require an appointment]" style="text;html=1;align=center;verticalAlign=middle;resizable=0;points=[];autosize=1;strokeColor=none;fillColor=none;rotation=-45;" parent="1" vertex="1">
          <mxGeometry x="5" y="170" width="170" height="30" as="geometry" />
        </mxCell>
        <mxCell id="kLwrZnIwr0KPvRrvXAmP-16" value="3.[Confirm Appointment]" style="text;html=1;align=center;verticalAlign=middle;resizable=0;points=[];autosize=1;strokeColor=none;fillColor=none;" parent="1" vertex="1">
          <mxGeometry x="280" y="139" width="150" height="30" as="geometry" />
        </mxCell>
        <mxCell id="kLwrZnIwr0KPvRrvXAmP-19" value="" style="endArrow=classic;html=1;rounded=0;exitX=0.095;exitY=1.132;exitDx=0;exitDy=0;exitPerimeter=0;" parent="1" source="kLwrZnIwr0KPvRrvXAmP-20" edge="1">
          <mxGeometry width="50" height="50" relative="1" as="geometry">
            <mxPoint x="240" y="190" as="sourcePoint" />
            <mxPoint x="110" y="330" as="targetPoint" />
          </mxGeometry>
        </mxCell>
        <mxCell id="kLwrZnIwr0KPvRrvXAmP-20" value="4.[Notify Patient About Appointment]" style="text;html=1;align=center;verticalAlign=middle;resizable=0;points=[];autosize=1;strokeColor=none;fillColor=none;rotation=-226;" parent="1" vertex="1">
          <mxGeometry x="85" y="250" width="220" height="30" as="geometry" />
        </mxCell>
        <mxCell id="jzon7ZytorbKp3tla-zo-1" value="" style="edgeStyle=none;orthogonalLoop=1;jettySize=auto;html=1;rounded=0;" edge="1" parent="1">
          <mxGeometry width="100" relative="1" as="geometry">
            <mxPoint x="425" y="169" as="sourcePoint" />
            <mxPoint x="275" y="169" as="targetPoint" />
            <Array as="points" />
          </mxGeometry>
        </mxCell>
        <mxCell id="jzon7ZytorbKp3tla-zo-2" value="" style="endArrow=none;html=1;rounded=0;exitX=0.5;exitY=0;exitDx=0;exitDy=0;entryX=0.5;entryY=1;entryDx=0;entryDy=0;" edge="1" parent="1" source="kLwrZnIwr0KPvRrvXAmP-2" target="kLwrZnIwr0KPvRrvXAmP-3">
          <mxGeometry width="50" height="50" relative="1" as="geometry">
            <mxPoint x="230" y="340" as="sourcePoint" />
            <mxPoint x="280" y="290" as="targetPoint" />
          </mxGeometry>
        </mxCell>
        <mxCell id="jzon7ZytorbKp3tla-zo-3" value="" style="endArrow=none;html=1;rounded=0;entryX=1;entryY=0.5;entryDx=0;entryDy=0;exitX=0;exitY=0.5;exitDx=0;exitDy=0;" edge="1" parent="1" source="kLwrZnIwr0KPvRrvXAmP-7" target="kLwrZnIwr0KPvRrvXAmP-3">
          <mxGeometry width="50" height="50" relative="1" as="geometry">
            <mxPoint x="230" y="340" as="sourcePoint" />
            <mxPoint x="280" y="290" as="targetPoint" />
          </mxGeometry>
        </mxCell>
        <mxCell id="jzon7ZytorbKp3tla-zo-4" value="" style="edgeStyle=orthogonalEdgeStyle;rounded=0;orthogonalLoop=1;jettySize=auto;html=1;" edge="1" parent="1" target="kLwrZnIwr0KPvRrvXAmP-14">
          <mxGeometry relative="1" as="geometry">
            <mxPoint x="320" y="80" as="sourcePoint" />
            <mxPoint x="440" y="79" as="targetPoint" />
            <Array as="points">
              <mxPoint x="320" y="81" />
              <mxPoint x="300" y="81" />
            </Array>
          </mxGeometry>
        </mxCell>
        <mxCell id="kLwrZnIwr0KPvRrvXAmP-14" value="2.[Send Date And Time]" style="text;html=1;align=center;verticalAlign=middle;resizable=0;points=[];autosize=1;strokeColor=none;fillColor=none;" parent="1" vertex="1">
          <mxGeometry x="290" y="50" width="150" height="30" as="geometry" />
        </mxCell>
      </root>
    </mxGraphModel>
  </diagram>
</mxfile>
